<svg width="128" height="128" viewBox="0 0 128 128" fill="none" xmlns="http://www.w3.org/2000/svg">
<rect width="128" height="128" fill="#105369"/>
<path d="M87.453 27H92L91.9636 58.7871C91.9636 64.0605 90.8239 68.6626 88.5443 72.5933C86.2648 76.4995 83.1243 79.5269 79.123 81.6753C75.1459 83.8237 70.599 84.898 65.4821 84.898H63.4815C58.3889 84.898 53.8419 83.8237 49.8406 81.6753C45.8393 79.5269 42.6989 76.4995 40.4193 72.5933C38.1398 68.6626 37 64.0605 37 58.7871V27H41.547V58.7871C41.547 63.2305 42.4806 67.0879 44.3479 70.3594C46.2394 73.6309 48.8342 76.1699 52.1323 77.9766C55.4303 79.7588 59.2134 80.6499 63.4815 80.6499H65.4821C69.726 80.6499 73.4969 79.7588 76.795 77.9766C80.1173 76.1943 82.7242 73.6675 84.6157 70.396C86.5073 67.1001 87.453 63.2305 87.453 58.7871V27ZM66.7917 27V102H62.2083V27H66.7917Z" fill="white"/>
</svg>
